<svg width="64" height="64" xmlns="http://www.w3.org/2000/svg">

 <g>
  <title>background</title>
  <rect fill="none" id="canvas_background" height="402" width="582" y="-1" x="-1"/>
 </g>
 <g>
  <title>Layer 1</title>
  <path id="svg_2" fill="#ffffff" d="m48,3l-32,0c-8.271,0 -15,6.729 -15,15l0,43l62,0l0,-43c0,-8.271 -6.729,-15 -15,-15zm-32,2l32,0c7.167999,0 13,5.832 13,13l0,21l-2,0l0,-21c0,-6.065 -4.935001,-11 -11,-11l-32,0c-6.065,0 -11,4.935 -11,11l0,21l-2,0l0,-21c0,-7.168 5.832,-13 13,-13zm20.023998,39.562c-0.570999,-0.518002 -1.238998,-0.925999 -1.976997,-1.195l16.952999,-16.953001l0,-13.414l2,0l0,37l-2,0l0,-20.414l-14.976002,14.976zm12.976002,-5.562l-4.585999,0l4.585999,-4.585999l0,4.585999zm-36,-9.414l0,20.414l-2,0l0,-37l2,0l0,13.414l16.952999,16.953001c-0.737999,0.269001 -1.405998,0.676998 -1.976999,1.195l-14.976,-14.976zm6.586,9.414l-4.586,0l0,-4.585999l4.586,4.585999zm10.827999,2l3.171999,0l-1.585999,1.585999l-1.586,-1.585999zm1.586,4c2.206001,0 4,1.793999 4,4s-1.793999,4 -4,4s-4,-1.793999 -4,-4s1.794001,-4 4,-4zm17,-34l0,14.586l-13.414001,13.414l-7.171999,0l-13.414,-13.414l0,-14.586l-4.645,0c1.546,-1.248 3.508,-2 5.645,-2l32,0c2.137001,0 4.098999,0.752 5.645,2l-4.645,0zm-40,28l-2,0l0,-21c0,-2.137 0.752,-4.099 2,-5.645l0,26.645zm46,-26.645c1.248001,1.545 2,3.508 2,5.645l0,21l-2,0l0,-26.645zm-52,46.645l0,-18l6,0l0,11l6,0l0,-11l6.586,0l5.139999,5.139999c-0.462999,0.851002 -0.726,1.825001 -0.726,2.860001c0,3.308998 2.691,6 6,6s6,-2.691002 6,-6c0,-1.035 -0.263,-2.008999 -0.726002,-2.860001l5.140003,-5.139999l6.585999,0l0,11l6,0l0,-11l6,0l0,18l-58,0z"/>
  <path id="svg_3" fill="#ffffff" d="m32,10.438l-4.747,5.696001c-0.808001,0.969999 -1.253,2.198999 -1.253,3.460999c0,3.093 3.167999,5.405001 6,5.405001s6,-2.312 6,-5.405001c0,-1.261999 -0.445,-2.490999 -1.252998,-3.460999l-4.747002,-5.696001zm0,12.562c-1.85,0 -4,-1.487 -4,-3.405001c0,-0.795 0.280001,-1.569 0.790001,-2.179998l3.209999,-3.853001l3.209999,3.853001c0.510002,0.609999 0.790001,1.384998 0.790001,2.179998c0,1.918001 -2.150002,3.405001 -4,3.405001z"/>
  <path id="svg_4" fill="#ffffff" d="m43,19.638l-2.360001,2.831999c-0.411999,0.496 -0.639999,1.124001 -0.639999,1.768002c0,1.627998 1.581001,2.761999 3,2.761999s3,-1.134001 3,-2.761999c0,-0.645 -0.228001,-1.272001 -0.639999,-1.769001l-2.360001,-2.830999zm0,5.362c-0.477001,0 -1,-0.398001 -1,-0.761999c0,-0.178001 0.062,-0.352001 0.176998,-0.487001l0.823002,-0.987999l0.823002,0.987999c0.114998,0.136 0.176998,0.310001 0.176998,0.487001c0,0.363998 -0.522999,0.761999 -1,0.761999z"/>
  <path id="svg_5" fill="#ffffff" d="m32,27.638l-2.360001,2.831999c-0.411999,0.496 -0.639999,1.124001 -0.639999,1.768c0,1.628002 1.580999,2.762001 3,2.762001s3,-1.133999 3,-2.762001c0,-0.644999 -0.228001,-1.271999 -0.639999,-1.768999l-2.360001,-2.830999zm0,5.362c-0.476999,0 -1,-0.397999 -1,-0.762001c0,-0.177998 0.062,-0.351999 0.177,-0.487l0.823,-0.987999l0.823002,0.987999c0.114998,0.136 0.176998,0.310001 0.176998,0.487c0,0.364002 -0.522999,0.762001 -1,0.762001z"/>
  <path id="svg_6" fill="#ffffff" d="m20,19.489853l-2.360001,2.831999c-0.411999,0.496 -0.639999,1.124001 -0.639999,1.768002c0,1.627998 1.580999,2.761999 3,2.761999s3,-1.134001 3,-2.761999c0,-0.645 -0.228001,-1.272001 -0.639999,-1.769001l-2.360001,-2.830999zm0,5.362c-0.476999,0 -1,-0.398001 -1,-0.761999c0,-0.178001 0.062,-0.352001 0.177,-0.487001l0.823,-0.987999l0.823,0.987999c0.115,0.136 0.177,0.310001 0.177,0.487001c0,0.363998 -0.523001,0.761999 -1,0.761999z"/>
 </g>
</svg>