<svg width="400" height="470" xmlns="http://www.w3.org/2000/svg">

 <g>
  <title>background</title>
  <rect fill="none" id="canvas_background" height="472" width="402" y="-1" x="-1"/>
 </g>
 <g>
  <title>Layer 1</title>
  <path stroke-width="8" stroke="#ffffff" fill="none" id="svg_3" d="m178.151277,368.34504c0.776,0.236 1.559,0.458 2.347,0.664c0.13,0.033 0.259,0.071 0.388,0.104c0.859,0.219 1.727,0.417 2.6,0.599c0.219,0.044 0.438,0.084 0.656,0.127c0.677,0.133 1.357,0.254 2.042,0.364c0.257,0.041 0.514,0.084 0.771,0.121c0.864,0.128 1.731,0.241 2.606,0.331c0.163,0.017 0.327,0.027 0.489,0.043c0.754,0.071 1.512,0.129 2.273,0.173c0.253,0.015 0.506,0.028 0.761,0.039c0.911,0.041 1.825,0.069 2.746,0.069c0.923,0 1.838,-0.028 2.75,-0.069c0.251,-0.011 0.501,-0.024 0.753,-0.039c0.771,-0.044 1.541,-0.102 2.306,-0.175c0.149,-0.015 0.302,-0.024 0.453,-0.039c0.886,-0.092 1.767,-0.206 2.641,-0.335c0.234,-0.035 0.468,-0.074 0.702,-0.112c0.723,-0.115 1.442,-0.242 2.156,-0.384c0.184,-0.036 0.367,-0.069 0.551,-0.107c0.9,-0.186 1.795,-0.391 2.68,-0.617c0.074,-0.019 0.15,-0.04 0.225,-0.06c0.859,-0.223 1.711,-0.465 2.555,-0.724c0.083,-0.025 0.166,-0.05 0.25,-0.075c24.482,-7.643 42.295,-30.425 42.295,-57.271c0,-33.089 -27.058,-60.009 -60.315,-60.009c-33.257,0 -60.313,26.92 -60.313,60.009c0,26.822 17.781,49.587 42.229,57.248c0.133,0.043 0.269,0.083 0.403,0.125zm-17.728,-57.373c0,-19.449 15.884,-35.271 35.407,-35.271c19.528,0 35.416,15.822 35.416,35.271s-15.888,35.272 -35.416,35.272c-19.523,0 -35.407,-15.823 -35.407,-35.272z"/>
  <path stroke="#ffffff" fill="none" stroke-width="8" id="svg_4" d="m209.689277,378.96904c-0.981,0.198 -1.967,0.372 -2.957,0.527c-0.197,0.031 -0.396,0.062 -0.594,0.091c-0.983,0.146 -1.971,0.271 -2.961,0.376c-0.187,0.02 -0.375,0.036 -0.562,0.054c-1.026,0.1 -2.055,0.181 -3.086,0.234c-0.122,0.007 -0.246,0.01 -0.37,0.016c-1.105,0.052 -2.217,0.084 -3.329,0.084c-1.11,0 -2.218,-0.032 -3.323,-0.084c-0.126,-0.006 -0.253,-0.009 -0.379,-0.016c-1.024,-0.054 -2.046,-0.135 -3.064,-0.232c-0.197,-0.02 -0.396,-0.037 -0.594,-0.058c-0.977,-0.103 -1.948,-0.227 -2.916,-0.371c-0.219,-0.031 -0.438,-0.065 -0.656,-0.1c-0.966,-0.152 -1.929,-0.323 -2.886,-0.515c-0.179,-0.036 -0.358,-0.075 -0.536,-0.113c-1.008,-0.21 -2.01,-0.437 -3.006,-0.691c-0.041,-0.011 -0.082,-0.022 -0.123,-0.033c-4.278,-1.102 -8.447,-2.606 -12.449,-4.501l0,17.18l0,57.216l27.342,-37.223c0.896,-1.222 2.286,-1.94 3.852,-1.91c1.517,0.023 2.929,0.782 3.787,2.034l24.887,36.278l0,-56.396l0,-17.178c-4.99,2.363 -10.24,4.116 -15.643,5.238c-0.145,0.031 -0.29,0.064 -0.434,0.093z"/>
  <path stroke-width="8" stroke="#ffffff" fill="none" id="svg_6" d="m221.875277,310.97204c0,-14.281 -11.684,-25.9 -26.045,-25.9c-14.356,0 -26.036,11.619 -26.036,25.9s11.68,25.901 26.036,25.901c14.361,0 26.045,-11.62 26.045,-25.901z"/>
  <polygon stroke="#ffffff" fill="none" stroke-width="8" id="svg_7" points="282.36730194091797,44.57003951072693 282.36730194091797,82.90603804588318 320.8642807006836,82.90603804588318 "/>
  <path stroke-width="8" stroke="#ffffff" fill="none" id="svg_8" d="m277.682277,92.27704c-2.588,0 -4.686,-2.097 -4.686,-4.686l0,-49.613l-208.858,0l0,348.153l92.388,0l0,-17.907c-18.329,-12.512 -30.381,-33.504 -30.381,-57.252c0,-38.256 31.262,-69.38 69.685,-69.38c38.425,0 69.686,31.124 69.686,69.38c0,23.748 -12.052,44.74 -30.38,57.252l0,17.907l92.389,0l0,-293.854l-49.843,0zm-189.457,-9.371l107.774,0c2.588,0 4.686,2.097 4.686,4.685c0,2.588 -2.098,4.686 -4.686,4.686l-107.774,0c-2.587,0 -4.686,-2.097 -4.686,-4.686c0,-2.587 2.098,-4.685 4.686,-4.685zm215.212,106.615l-215.212,0c-2.587,0 -4.686,-2.098 -4.686,-4.686s2.098,-4.686 4.686,-4.686l215.212,0c2.588,0 4.686,2.098 4.686,4.686s-2.099,4.686 -4.686,4.686zm0,-32.412l-215.212,0c-2.587,0 -4.686,-2.098 -4.686,-4.686c0,-2.588 2.098,-4.686 4.686,-4.686l215.212,0c2.588,0 4.686,2.097 4.686,4.686c-0.001,2.588 -2.099,4.686 -4.686,4.686zm0,-32.413l-215.212,0c-2.587,0 -4.686,-2.097 -4.686,-4.685c0,-2.588 2.098,-4.686 4.686,-4.686l215.212,0c2.588,0 4.686,2.097 4.686,4.686c-0.001,2.588 -2.099,4.685 -4.686,4.685z"/>
 </g>
</svg>