<svg width="64" height="64" xmlns="http://www.w3.org/2000/svg">

 <g>
  <title>background</title>
  <rect fill="none" id="canvas_background" height="402" width="582" y="-1" x="-1"/>
 </g>
 <g>
  <title>Layer 1</title>
  <path id="svg_2" fill="#ffffff" d="m63,41l0,-18l-5.542999,0c-0.316002,-0.893999 -0.683002,-1.775 -1.094002,-2.635l3.921001,-3.921l-12.727001,-12.728l-3.922001,3.921c-0.862,-0.412 -1.743,-0.778 -2.634998,-1.094l0,-5.543l-18,0l0,5.542c-0.891001,0.316 -1.771999,0.682 -2.635,1.095l-3.921999,-3.921l-12.727001,12.728l3.921,3.921c-0.411,0.860001 -0.778,1.741001 -1.094,2.635l-5.543,0l0,18l5.543,0c0.316,0.894001 0.683,1.775002 1.094,2.634998l-3.921,3.921001l12.728,12.728001l3.921999,-3.921001c0.861,0.412003 1.743,0.778999 2.635,1.095001l0,5.542l18,0l0,-4l-0.343998,0l0.433998,-0.433998c0.612999,0.313 1.251999,0.577999 1.91,0.789997l0,3.644001l8,0l0,-3.643002c0.658001,-0.211998 1.297001,-0.476997 1.91,-0.789997l2.575001,2.574997l5.655998,-5.656998l-2.574997,-2.575001c0.313999,-0.612999 0.577999,-1.251999 0.791,-1.91l3.641998,0l0,-8l-3.643002,0c-0.212997,-0.658001 -0.476997,-1.297001 -0.790997,-1.91l0.089996,-0.09l4.344002,0zm-2.344002,-2l0.344002,-0.344002l0,0.344002l-0.344002,0zm-36.347998,16.789001c-1.255001,-0.405003 -2.495001,-0.920002 -3.686001,-1.530003l-0.647999,-0.333l-3.530001,3.530003l-9.899,-9.900002l3.529,-3.528999l-0.332001,-0.647999c-0.608,-1.188 -1.122999,-2.428001 -1.53,-3.686001l-0.225,-0.693001l-4.987,0l0,-14l4.987,0l0.224,-0.691999c0.407,-1.258001 0.922,-2.499001 1.53,-3.686001l0.332,-0.647999l-3.529,-3.529001l9.899001,-9.9l3.529999,3.53l0.648001,-0.332c1.192999,-0.611 2.433001,-1.126 3.685999,-1.531l0.693001,-0.224l0,-4.988l14,0l0,4.987l0.692001,0.224c1.253998,0.405 2.493999,0.919999 3.685997,1.530999l0.648003,0.332001l3.529999,-3.53l9.899002,9.9l-3.529003,3.528999l0.332001,0.648001c0.608002,1.188 1.123001,2.427999 1.529999,3.685999l0.225002,0.693001l4.987,0l0,13.373001l-4.084,-4.084c0.657001,-0.551003 1.084,-1.367001 1.084,-2.289001c0,-1.653999 -1.346001,-3 -3,-3s-3,1.346001 -3,3c0,1.174 0.683998,2.181999 1.668999,2.674l-0.758999,0.758999c-0.612999,-0.313 -1.251999,-0.577999 -1.91,-0.789997l0,-3.643002l-1.050999,0c-0.523003,-9.459 -8.362,-17 -17.949001,-17c-9.924999,0 -18,8.075001 -18,18c0,9.588001 7.541,17.425999 17,17.949001l0,1.050999l3.643002,0c0.212997,0.658001 0.476997,1.297001 0.790997,1.91l-0.758999,0.758999c-0.493,-0.985001 -1.500999,-1.668999 -2.674999,-1.668999c-1.653999,0 -3,1.346001 -3,3s1.346001,3 3,3c0.922001,0 1.737999,-0.426998 2.289001,-1.084l4.084,4.084l-13.373001,0l0,-4.987999l-0.691999,-0.223zm30.691999,-22.789001c-0.551998,0 -1,-0.449001 -1,-1s0.448002,-1 1,-1s1,0.448999 1,1s-0.448002,1 -1,1zm-19.566002,8.09c-0.313999,0.612999 -0.577999,1.251999 -0.790997,1.91l-3.643002,0l0,0.949001c-6.15,-0.511002 -11,-5.670002 -11,-11.949001c0,-6.617001 5.382999,-12 12,-12c6.279999,0 11.438,4.851 11.949001,11l-0.949001,0l0,3.643002c-0.658001,0.211998 -1.297001,0.476997 -1.91,0.789997l-2.575001,-2.574997l-5.655998,5.656998l2.574997,2.575001zm10.515003,-10.09c-0.516003,-7.253 -6.567001,-13 -13.949001,-13c-7.719999,0 -14,6.280001 -14,14c0,7.382 5.747,13.432999 13,13.949001l0,2c-8.356001,-0.52 -15,-7.464001 -15,-15.949001c0,-8.822001 7.177999,-16 16,-16c8.485001,0 15.429001,6.643999 15.949001,15l-2,0zm-13.949001,25c-0.552,0 -1,-0.449001 -1,-1s0.448,-1 1,-1s1,0.449001 1,1s-0.448002,1 -1,1zm7,5l-0.342999,0l0.342999,-0.342999l0,0.342999zm22,-16l0,4l-3.167999,0l-0.194,0.75c-0.257,0.997002 -0.650002,1.948002 -1.170002,2.827999l-0.393997,0.667l2.238998,2.240002l-2.827999,2.828999l-2.240002,-2.239998l-0.667999,0.395c-0.878998,0.518997 -1.829998,0.912998 -2.827,1.169998l-0.75,0.193001l0,3.167999l-4,0l0,-3.167999l-0.75,-0.193001c-0.997002,-0.257 -1.948002,-0.651001 -2.827,-1.169998l-0.667999,-0.395l-2.240002,2.239998l-2.827999,-2.828999l2.238998,-2.240002l-0.393997,-0.667c-0.52,-0.879997 -0.913002,-1.830997 -1.170002,-2.827999l-0.194,-0.75l-3.167999,0l0,-4l3.167999,0l0.194,-0.75c0.257,-0.997002 0.650002,-1.948002 1.170002,-2.827999l0.393997,-0.667l-2.238998,-2.240002l2.827999,-2.828999l2.240002,2.239998l0.667999,-0.395c0.878998,-0.518997 1.829998,-0.912998 2.827,-1.169998l0.75,-0.193001l0,-3.167999l4,0l0,3.167999l0.75,0.193001c0.997002,0.257 1.948002,0.651001 2.827,1.169998l0.667999,0.395l2.240002,-2.239998l2.827999,2.828999l-2.238998,2.240002l0.393997,0.667c0.52,0.879997 0.913002,1.830997 1.170002,2.827999l0.194,0.75l3.167999,0z"/>
  <path id="svg_3" fill="#ffffff" d="m32,12c1.653999,0 3,-1.346 3,-3s-1.346001,-3 -3,-3s-3,1.346 -3,3s1.346001,3 3,3zm0,-4c0.551998,0 1,0.449 1,1s-0.448002,1 -1,1s-1,-0.449 -1,-1s0.448,-1 1,-1z"/>
  <path id="svg_4" fill="#ffffff" d="m9,29c-1.654,0 -3,1.346001 -3,3s1.346,3 3,3s3,-1.346001 3,-3s-1.346,-3 -3,-3zm0,4c-0.552,0 -1,-0.449001 -1,-1s0.448,-1 1,-1s1,0.448999 1,1s-0.448,1 -1,1z"/>
  <path id="svg_5" fill="#ffffff" d="m47,38c-4.963001,0 -9,4.037998 -9,9s4.036999,9 9,9s9,-4.037998 9,-9s-4.036999,-9 -9,-9zm0,16c-3.859001,0 -7,-3.139999 -7,-7s3.140999,-7 7,-7s7,3.139999 7,7s-3.140999,7 -7,7z"/>
 </g>
</svg>