<svg width="91" height="91" xmlns="http://www.w3.org/2000/svg">

 <g>
  <title>background</title>
  <rect fill="none" id="canvas_background" height="402" width="582" y="-1" x="-1"/>
 </g>
 <g>
  <title>Layer 1</title>
  <path fill="#ffffff" id="svg_2" d="m25.155001,36.687c0.059,0.006001 0.115,0.007999 0.171999,0.007999c0.448999,0 0.882999,-0.175999 1.203001,-0.498001l1.434,-1.435997l9.940998,9.938999l-14.759998,14.757999c-1.189001,1.188999 -1.76,2.832001 -1.604,4.625c0.147999,1.681999 0.927999,3.306999 2.177999,4.553001l0.122999,0.126999c1.461,1.457001 3.342001,2.203003 5.135,2.203003c1.518002,0 2.973001,-0.533005 4.060999,-1.621002l10.992001,-10.990002l12.355,12.52c1.051003,1.051003 2.494003,1.630997 4.063004,1.630997c1.853996,0 3.722996,-0.806999 5.231998,-2.32c1.270996,-1.269997 2.048996,-2.892998 2.195,-4.573997c0.153999,-1.791 -0.414001,-3.433998 -1.598,-4.614998l-9.512001,-9.643002c3.202999,-0.004002 6.268002,-1.384998 9.058998,-4.175999l3.883003,-3.883003c4.248001,-4.245998 2.989998,-9.245998 1,-14.017998l-0.979004,-2.344l-6.280998,6.287001c-0.925999,0.927998 -1.759998,1.460999 -2.473,1.584c-0.459,0.082001 -1.169998,0.063999 -2.202999,-0.973l-0.120998,-0.117001c-1.023003,-1.022999 -1.816002,-2.225 0.622997,-4.666l6.286999,-6.283001l-2.341999,-0.979c-4.771,-1.991999 -9.769997,-3.241999 -14.015999,1l-3.889,3.885c-4.348,4.354 -5.59,9.355001 -3.588001,14.24c-0.120998,0.100002 -0.237999,0.205002 -0.349998,0.316002l-1.068001,1.067997l-9.941,-9.938999l1.564001,-1.563999c0.361,-0.361 0.541,-0.867001 0.487999,-1.376999c-0.052998,-0.508001 -0.329998,-0.965 -0.757999,-1.246l-7.882999,-5.178001c-0.674,-0.441 -1.566,-0.354 -2.137001,0.219l-2.698999,2.703001c-0.568001,0.57 -0.657999,1.462999 -0.216999,2.135l5.179998,7.881001c0.283001,0.426998 0.743,0.704998 1.251001,0.757999zm38.711,26.702999c0.468998,0.469002 0.688999,1.152 0.620998,1.928001c-0.075996,0.885002 -0.503998,1.757996 -1.311001,2.568001c-0.774998,0.775002 -1.77,1.219002 -2.729,1.219002c-0.466999,0 -1.132999,-0.109001 -1.649998,-0.625l-15.331001,-15.538002l5.080002,-5.080002l15.32,15.528zm-20.084,-19.757999c0.190998,-0.190998 0.435997,-0.34 0.745998,-0.457001l1.84,-0.688999l-0.946999,-1.721001c-2.209,-4.02 -1.434002,-7.952999 2.299,-11.688l3.889,-3.885c1.981998,-1.983999 4.185997,-2.362999 7.884998,-1.17l-2.623001,2.621c-4.392998,4.395 -2.274998,7.822001 -0.608997,9.488001l0.120998,0.117001c1.973,1.979 3.903999,2.125 5.175999,1.905998c1.438004,-0.251999 2.844002,-1.079998 4.294998,-2.530998l2.621002,-2.623001c1.191002,3.705002 0.813004,5.908001 -1.169998,7.889l-3.882999,3.884998c-3.475002,3.475002 -7.16,4.094002 -11.248001,1.922001l-1.324001,-1.341999c-0.528999,-0.535 -1.185997,-0.951 -1.952999,-1.240002l-1.022999,-0.384998l-3.066002,3.063999l-2.093998,-2.092999l1.068001,-1.068001zm-1.379002,5.566002l-3.068001,3.067997l0.385002,1.023003c0.285,0.759998 0.701,1.413998 1.229,1.940998l0.692997,0.701l-11.007998,11.010002c-1.045,1.046997 -3.016001,0.784996 -4.371,-0.564003l-0.123001,-0.128998c-0.702999,-0.701004 -1.132999,-1.573997 -1.209,-2.461002c-0.067999,-0.772999 0.152,-1.459 0.618999,-1.925999l14.760002,-14.757999l2.092999,2.095001zm-19.332001,-22.605001l4.980001,3.272999l-2.449001,2.448999l-3.275,-4.978998l0.743999,-0.743z"/>
 </g>
</svg>